<svg width="141" height="158" viewBox="0 0 141 158" fill="none" xmlns="http://www.w3.org/2000/svg">
<path d="M1.53995 156.453C1.53995 156.453 0.498612 98.6944 8.56395 61.7504C16.6293 24.8051 41.0853 7.11446 65.0213 2.4318C88.9573 -2.2522 120.439 13.8785 120.959 29.4891C121.479 45.0998 105.868 45.0998 84.0146 44.8385C62.16 44.5798 44.208 44.0265 32.24 53.7998" stroke="#040606" stroke-width="2.26667" stroke-miterlimit="10" stroke-linecap="round" stroke-linejoin="round"/>
<path d="M14.0273 74.4986C14.0273 74.4986 20.0114 103.637 32.2394 106.76C44.4674 109.881 49.4113 85.9466 49.15 83.3439M49.15 83.3439C48.89 80.7426 50.9713 74.7586 53.834 74.4986C56.6953 74.2386 58.5167 77.0999 58.5167 77.0999C58.5167 77.0999 72.3047 75.5399 73.606 77.6212C74.9087 79.7025 63.4607 81.5239 62.6794 81.7839C61.8994 82.0439 64.2407 85.1666 59.818 87.2479C55.394 89.3279 50.4513 85.4252 49.15 83.3439Z" stroke="#040606" stroke-width="2.26667" stroke-miterlimit="10" stroke-linecap="round" stroke-linejoin="round"/>
<path d="M116.17 64.2531C116.17 64.2531 140.733 89.5878 125.289 98.6371C114.399 105.016 98.0099 85.9465 98.2699 83.3438M98.2699 83.3438C98.5299 80.7425 96.4486 74.7585 93.5859 74.4985C90.7246 74.2385 88.9046 77.0998 88.9046 77.0998C88.9046 77.0998 75.1152 75.5398 73.8139 77.6211C72.5126 79.7025 83.9606 81.5238 84.7419 81.7838C85.5219 82.0438 83.1806 85.1665 87.6032 87.2478C92.0259 89.3278 96.9699 85.4251 98.2699 83.3438Z" stroke="#040606" stroke-width="2.26667" stroke-miterlimit="10" stroke-linecap="round" stroke-linejoin="round"/>
<path d="M111.404 42.9465C111.404 42.9465 119.398 81.8238 127.983 107.04C136.57 132.256 139.171 151.25 139.171 151.25" stroke="#040606" stroke-width="2.26667" stroke-miterlimit="10" stroke-linecap="round" stroke-linejoin="round"/>
<path d="M51.0697 33.6489C50.7977 35.1009 51.8684 36.6716 53.3204 36.9476C54.7724 37.2236 56.3457 36.1556 56.6244 34.7049C57.311 31.1356 51.7417 30.0756 51.0697 33.6489Z" fill="#040606"/>
<path d="M102.092 33.6489C101.818 35.1009 102.89 36.6716 104.342 36.9476C105.794 37.2236 107.366 36.1556 107.646 34.7049C108.333 31.1356 102.762 30.0756 102.092 33.6489Z" fill="#040606"/>
<path d="M47.1992 26.8877C47.1992 26.8877 49.2805 24.285 51.7525 23.8944" stroke="#040606" stroke-width="2.26667" stroke-miterlimit="10" stroke-linecap="round" stroke-linejoin="round"/>
<path d="M104.178 25.3906C104.178 25.3906 107.039 24.936 109.511 27.668" stroke="#040606" stroke-width="2.26667" stroke-miterlimit="10" stroke-linecap="round" stroke-linejoin="round"/>
</svg>
