<svg width="146" height="186" viewBox="0 0 146 186" fill="none" xmlns="http://www.w3.org/2000/svg">
<path d="M12.7327 183.949C12.7327 183.949 11.9367 131.751 22.83 87.3786C33.7233 43.0066 46.742 30.7532 71.4527 26.6519C96.162 22.5492 129.374 44.7852 127.779 59.8372C126.186 74.8905 84.4713 68.5146 65.606 69.3106C46.742 70.1079 37.974 72.3426 34.786 75.8759" stroke="currentColor" stroke-width="2.26667" stroke-miterlimit="10" stroke-linecap="round" stroke-linejoin="round"/>
<path d="M46.4434 57.2787C45.8794 58.82 46.6847 60.7293 48.1807 61.4013C49.6767 62.0747 51.638 61.4093 52.4167 59.9653C54.678 55.772 48.0514 52.876 46.4434 57.2787Z" fill="currentColor"/>
<path d="M109.147 57.2787C108.584 58.82 109.389 60.7293 110.885 61.4013C112.381 62.0747 114.344 61.4093 115.123 59.9653C117.384 55.772 110.756 52.876 109.147 57.2787Z" fill="currentColor"/>
<path d="M72.2207 12.4521V1.95749" stroke="currentColor" stroke-width="2.26667" stroke-miterlimit="10" stroke-linecap="round" stroke-linejoin="round"/>
<path d="M65.5757 15.5361L58.1543 8.11481" stroke="currentColor" stroke-width="2.26667" stroke-miterlimit="10" stroke-linecap="round" stroke-linejoin="round"/>
<path d="M63.0556 22.416H52.5596" stroke="currentColor" stroke-width="2.26667" stroke-miterlimit="10" stroke-linecap="round" stroke-linejoin="round"/>
<path d="M66.1382 29.0626L58.7168 36.4839" stroke="currentColor" stroke-width="2.26667" stroke-miterlimit="10" stroke-linecap="round" stroke-linejoin="round"/>
<path d="M73.0195 31.5825V42.0771" stroke="currentColor" stroke-width="2.26667" stroke-miterlimit="10" stroke-linecap="round" stroke-linejoin="round"/>
<path d="M79.665 28.4986L87.0864 35.9199" stroke="currentColor" stroke-width="2.26667" stroke-miterlimit="10" stroke-linecap="round" stroke-linejoin="round"/>
<path d="M82.1855 21.6187H92.6816" stroke="currentColor" stroke-width="2.26667" stroke-miterlimit="10" stroke-linecap="round" stroke-linejoin="round"/>
<path d="M79.1016 14.9722L86.5242 7.55081" stroke="currentColor" stroke-width="2.26667" stroke-miterlimit="10" stroke-linecap="round" stroke-linejoin="round"/>
<path d="M108.968 69.6013C108.968 69.6013 109.978 94.0213 117.417 121.919C124.858 149.817 130.172 172.772 130.172 172.772" stroke="currentColor" stroke-width="2.26667" stroke-miterlimit="10" stroke-linecap="round" stroke-linejoin="round"/>
<path d="M1.70766 153.117C1.70766 153.117 -0.297685 116.715 22.5916 88.3625" stroke="currentColor" stroke-width="2.26667" stroke-miterlimit="10" stroke-linecap="round" stroke-linejoin="round"/>
<path d="M139.381 152.063C138.053 151.361 138.61 157.384 137.19 162.88C135.77 168.376 133.391 171.143 139.799 171.72C146.205 172.299 144.335 154.681 139.381 152.063Z" stroke="currentColor" stroke-width="2.26667" stroke-miterlimit="10" stroke-linecap="round" stroke-linejoin="round"/>
<path d="M139.381 152.062C139.381 152.062 137.531 115.652 111.777 89.8759" stroke="currentColor" stroke-width="2.26667" stroke-miterlimit="10" stroke-linecap="round" stroke-linejoin="round"/>
</svg>
