<svg width="189" height="166" viewBox="0 0 189 166" fill="none" xmlns="http://www.w3.org/2000/svg">
<path d="M37.1959 27.0667C37.4733 29.2614 41.0559 41.516 52.6386 42.8174C64.2213 44.1187 69.2893 37.3614 71.7013 33.0187C74.1146 28.6747 72.8079 25.5387 74.1866 24.5733C75.5626 23.6067 85.6973 22.8827 87.1453 22.8827C88.5933 22.8827 89.5586 36.3027 102.105 39.2453C114.653 42.188 121.651 33.42 122.375 27.0667C123.099 20.712 121.893 15.2387 120.203 14.2347C118.515 13.232 36.2306 19.4254 37.1959 27.0667Z" stroke="#040606" stroke-width="2.26667" stroke-miterlimit="10" stroke-linecap="round" stroke-linejoin="round"/>
<path d="M33.8174 40.4989C33.8174 40.4989 37.9201 48.9442 50.7094 50.6335C63.4987 52.3228 96.0734 49.6682 109.585 45.5655C123.099 41.4642 126.423 31.0881 122.589 23.6068" stroke="#040606" stroke-width="2.26667" stroke-miterlimit="10" stroke-linecap="round" stroke-linejoin="round"/>
<path d="M116.001 14.1281C116.001 14.1281 101.383 -2.2119 71.4613 2.1321C41.54 6.47477 21.2707 23.6067 15.2373 60.5267C9.20534 97.4454 12.3427 116.749 9.68799 164.285" stroke="#040606" stroke-width="2.26667" stroke-miterlimit="10" stroke-linecap="round" stroke-linejoin="round"/>
<path d="M109.585 45.5655C109.585 45.5655 113.205 49.4268 114.413 60.5268C115.619 71.6268 130.58 127.849 140.472 152.221" stroke="#040606" stroke-width="2.26667" stroke-miterlimit="10" stroke-linecap="round" stroke-linejoin="round"/>
<path d="M13.0773 76.2402C13.0773 76.2402 4.38 79.1068 1.724 88.2762C-0.929332 97.4455 13.3066 113.855 28.7506 115.784C44.1933 117.715 44.1933 86.5868 44.1933 86.5868" stroke="#040606" stroke-width="2.26667" stroke-miterlimit="10" stroke-linecap="round" stroke-linejoin="round"/>
<path d="M40.3333 78.5854C38.1613 80.2467 39.6093 86.2787 44.1933 86.7614C48.7786 87.2441 50.4679 81.508 49.9853 78.5854C49.9853 78.5854 75.9786 74.6961 75.8919 73.4894C75.8039 72.2827 77.4933 69.4841 70.0133 70.2801C62.532 71.0774 49.5026 73.4894 47.3306 73.2481C45.1586 73.0067 41.5226 64.8027 37.1879 65.7681C32.8533 66.7334 35.5066 70.3534 38.644 72.0414C41.78 73.7307 40.3333 78.5854 40.3333 78.5854Z" stroke="#040606" stroke-width="2.26667" stroke-miterlimit="10" stroke-linecap="round" stroke-linejoin="round"/>
<path d="M151.345 71.4267C149.173 73.0867 150.621 79.12 155.205 79.6027C159.791 80.0854 161.479 74.3507 160.997 71.4267C160.997 71.4267 186.991 67.5374 186.904 66.3307C186.816 65.124 188.505 62.3253 181.025 63.1213C173.544 63.9187 160.515 66.3307 158.343 66.0893C156.171 65.848 152.533 57.644 148.199 58.6094C143.864 59.5747 146.519 63.1934 149.656 64.8827C152.793 66.572 151.345 71.4267 151.345 71.4267Z" stroke="#040606" stroke-width="2.26667" stroke-miterlimit="10" stroke-linecap="round" stroke-linejoin="round"/>
<path d="M119.548 83.976C119.548 83.976 131.304 100.583 143.128 102.272C154.95 103.961 155.46 89.0267 155.205 79.6027" stroke="#040606" stroke-width="2.26667" stroke-miterlimit="10" stroke-linecap="round" stroke-linejoin="round"/>
<path d="M44.1934 39.2095L55.4574 20.5428" stroke="#040606" stroke-width="2.26667" stroke-miterlimit="10" stroke-linecap="round" stroke-linejoin="round"/>
<path d="M52.6387 42.8174L66.7773 18.7841" stroke="#040606" stroke-width="2.26667" stroke-miterlimit="10" stroke-linecap="round" stroke-linejoin="round"/>
<path d="M92.1973 32.7148L100.799 15.1642" stroke="#040606" stroke-width="2.26667" stroke-miterlimit="10" stroke-linecap="round" stroke-linejoin="round"/>
<path d="M97.3481 37.3787L109.585 14.528" stroke="#040606" stroke-width="2.26667" stroke-miterlimit="10" stroke-linecap="round" stroke-linejoin="round"/>
<path d="M107.659 39.8162L120.203 14.2348" stroke="#040606" stroke-width="2.26667" stroke-miterlimit="10" stroke-linecap="round" stroke-linejoin="round"/>
</svg>
